<svg xmlns="http://www.w3.org/2000/svg" width="1956.332" height="1110.308" viewBox="0 0 1956.332 1110.308">
  <g id="Elementos_Fondo" data-name="Elementos Fondo" transform="translate(21.59 -145.663)">
    <g id="Grupo_31" data-name="Grupo 31" transform="translate(-20.768 146.725)">
      <g id="Grupo_26" data-name="Grupo 26" transform="translate(0 2.761)">
        <path id="Trazado_71" data-name="Trazado 71" d="M156.248,149.486s31.039,63.751-39.039,114.356S47.9,312.865,22.215,382.446s-42.983,74.326-42.983,74.326V149.486Z" transform="translate(20.768 -149.486)" fill="none" stroke="#fde5c9" stroke-miterlimit="10" stroke-width="1.643"/>
        <path id="Trazado_72" data-name="Trazado 72" d="M-20.768,149.486H215.963s41.511,85.257-52.207,152.934S71.068,367.98,36.715,461.035s-57.483,99.4-57.483,99.4" transform="translate(20.768 -149.486)" fill="none" stroke="#fde5c9" stroke-miterlimit="10" stroke-width="2.198"/>
      </g>
      <path id="Trazado_73" data-name="Trazado 73" d="M-11.8,756.772s85.34-14.354,130.554,48.085S166.838,907.366,249.371,909.22s140.667,34.418,157.891,83.8H-11.8Z" transform="translate(20.768 114.678)" fill="none" stroke="#61e14e" stroke-miterlimit="10" stroke-width="3.087"/>
      <path id="Trazado_74" data-name="Trazado 74" d="M-11.8,701.426s105.332-17.716,161.138,59.35S208.686,887.3,310.555,889.588s173.619,42.481,194.878,103.436H-11.8Z" transform="translate(20.768 114.678)" fill="none" stroke="#f7dd64" stroke-miterlimit="10" stroke-width="3.087"/>
      <path id="Trazado_75" data-name="Trazado 75" d="M1701.715,146.725s-40.131,82.425,50.474,147.854,89.61,63.383,122.822,153.347,55.574,96.1,55.574,96.1v-397.3Z" transform="translate(23.738 -146.725)" fill="none" stroke="#f4e1c0" stroke-miterlimit="10" stroke-width="2.125"/>
      <path id="Trazado_76" data-name="Trazado 76" d="M1338.25,992.071s-9.354-164.691,175.693-171.361,182.92,60.029,302.03,75.591,114.856,95.77,114.856,95.77Z" transform="translate(23.738 114.678)" fill="none" stroke="#ffdd5b" stroke-miterlimit="10" stroke-width="1.805"/>
      <path id="Trazado_77" data-name="Trazado 77" d="M1403.31,984.628s-5.681-95.685,106.7-99.56,111.087,34.876,183.423,43.918,69.752,55.642,69.752,55.642Z" transform="translate(23.738 122.121)" fill="none" stroke="#ffdd5b" stroke-miterlimit="10" stroke-width="1.059"/>
    </g>
    <g id="Grupo_33" data-name="Grupo 33" transform="translate(1522.24 629.825)">
      <g id="Grupo_32" data-name="Grupo 32">
        <path id="Trazado_91" data-name="Trazado 91" d="M1527.757,515.7l-4.82-7.646-3.082,2.829,7.055,5.9s-4.644,12.864,11.12,17.147,22.089-2.626,22.089-2.626S1543.845,509.8,1527.757,515.7Z" transform="translate(-1519.847 -508.058)" fill="none" stroke="#fae3c1" stroke-miterlimit="10" stroke-width="0.695"/>
        <line id="Línea_1" data-name="Línea 1" x2="32.363" y2="15.608" transform="translate(7.91 7.646)" fill="none" stroke="#fae3c1" stroke-miterlimit="10" stroke-width="0.695"/>
        <line id="Línea_2" data-name="Línea 2" x2="4.426" y2="12.359" transform="translate(22.99 14.919)" fill="none" stroke="#fae3c1" stroke-miterlimit="10" stroke-width="0.695"/>
        <line id="Línea_3" data-name="Línea 3" y1="2.221" x2="7.959" transform="translate(16.242 9.444)" fill="none" stroke="#fae3c1" stroke-miterlimit="10" stroke-width="0.695"/>
        <line id="Línea_4" data-name="Línea 4" x1="0.247" y2="13.481" transform="translate(11.885 9.638)" fill="none" stroke="#fae3c1" stroke-miterlimit="10" stroke-width="0.695"/>
        <path id="Trazado_92" data-name="Trazado 92" d="M1520.531,510.266l6.379,6.525-7.063-5.462Z" transform="translate(-1519.847 -508.058)" fill="none" stroke="#fae3c1" stroke-miterlimit="10" stroke-width="0.695" opacity="0.28" style="mix-blend-mode: multiply;isolation: isolate"/>
        <path id="Trazado_93" data-name="Trazado 93" d="M1526.91,516.791s-.44,13.455,11.935,17.286C1538.845,534.077,1522.121,531.133,1526.91,516.791Z" transform="translate(-1519.847 -508.058)" fill="#863933" opacity="0.28" style="mix-blend-mode: multiply;isolation: isolate"/>
      </g>
    </g>
    <g id="Grupo_35" data-name="Grupo 35" transform="translate(569.841 696.779)">
      <g id="Grupo_34" data-name="Grupo 34">
        <path id="Trazado_94" data-name="Trazado 94" d="M598.373,565.035l9.016-.631-1.035-4.054-8.538,3.425s-9.14-10.174-20.368,1.69-8.131,20.706-8.131,20.706S595.968,582,598.373,565.035Z" transform="translate(-568.926 -559.426)" fill="none" stroke="#fae3c1" stroke-miterlimit="10" stroke-width="0.695"/>
        <line id="Línea_5" data-name="Línea 5" x1="29.056" y2="21.135" transform="translate(0.391 5.609)" fill="none" stroke="#fae3c1" stroke-miterlimit="10" stroke-width="0.695"/>
        <line id="Línea_6" data-name="Línea 6" x1="12.983" y1="1.944" transform="translate(2.925 13.513)" fill="none" stroke="#fae3c1" stroke-miterlimit="10" stroke-width="0.695"/>
        <line id="Línea_7" data-name="Línea 7" x1="1.807" y2="8.063" transform="translate(20.16 11.05)" fill="none" stroke="#fae3c1" stroke-miterlimit="10" stroke-width="0.695"/>
        <line id="Línea_8" data-name="Línea 8" x1="11.762" y1="6.592" transform="translate(13.934 1.794)" fill="none" stroke="#fae3c1" stroke-miterlimit="10" stroke-width="0.695"/>
        <path id="Trazado_95" data-name="Trazado 95" d="M606.581,561.24l-8.765,2.535,8.153-3.641Z" transform="translate(-568.926 -559.426)" fill="none" stroke="#fae3c1" stroke-miterlimit="10" stroke-width="0.695" opacity="0.28" style="mix-blend-mode: multiply;isolation: isolate"/>
        <path id="Trazado_96" data-name="Trazado 96" d="M597.816,563.775s-11.648-6.75-20.876,2.342C576.94,566.117,587.442,552.773,597.816,563.775Z" transform="translate(-568.926 -559.426)" fill="#863933" opacity="0.28" style="mix-blend-mode: multiply;isolation: isolate"/>
      </g>
    </g>
    <g id="Grupo_37" data-name="Grupo 37" transform="translate(496.752 1107.9)">
      <g id="Grupo_36" data-name="Grupo 36">
        <path id="Trazado_97" data-name="Trazado 97" d="M525.4,852.1l9.016-.63-1.035-4.054-8.538,3.425s-9.139-10.175-20.368,1.689-8.131,20.706-8.131,20.706S522.992,869.072,525.4,852.1Z" transform="translate(-495.95 -846.496)" fill="none" stroke="#fae3c1" stroke-miterlimit="10" stroke-width="0.695"/>
        <line id="Línea_9" data-name="Línea 9" x1="29.056" y2="21.135" transform="translate(0.392 5.608)" fill="none" stroke="#fae3c1" stroke-miterlimit="10" stroke-width="0.695"/>
        <line id="Línea_10" data-name="Línea 10" x1="12.983" y1="1.944" transform="translate(2.925 13.512)" fill="none" stroke="#fae3c1" stroke-miterlimit="10" stroke-width="0.695"/>
        <line id="Línea_11" data-name="Línea 11" x1="1.807" y2="8.063" transform="translate(20.16 11.05)" fill="none" stroke="#fae3c1" stroke-miterlimit="10" stroke-width="0.695"/>
        <line id="Línea_12" data-name="Línea 12" x1="11.762" y1="6.592" transform="translate(13.934 1.794)" fill="none" stroke="#fae3c1" stroke-miterlimit="10" stroke-width="0.695"/>
        <path id="Trazado_98" data-name="Trazado 98" d="M533.605,848.31l-8.765,2.535,8.153-3.641Z" transform="translate(-495.95 -846.496)" fill="none" stroke="#fae3c1" stroke-miterlimit="10" stroke-width="0.695" opacity="0.28" style="mix-blend-mode: multiply;isolation: isolate"/>
        <path id="Trazado_99" data-name="Trazado 99" d="M524.84,850.845s-11.648-6.751-20.876,2.342C503.964,853.187,514.467,839.843,524.84,850.845Z" transform="translate(-495.95 -846.496)" fill="#863933" opacity="0.28" style="mix-blend-mode: multiply;isolation: isolate"/>
      </g>
    </g>
    <g id="Grupo_39" data-name="Grupo 39" transform="translate(425.665 417.508)">
      <g id="Grupo_38" data-name="Grupo 38">
        <path id="Trazado_100" data-name="Trazado 100" d="M434.143,356.442l-3.591-12.5-5.394,2.672,7.379,10.987s-11.576,15.91,8.484,28.152,31.572,5.233,31.572,5.233S458.738,354.738,434.143,356.442Z" transform="translate(-424.97 -343.945)" fill="none" stroke="#fae3c1" stroke-miterlimit="10" stroke-width="1"/>
        <line id="Línea_13" data-name="Línea 13" x2="38.45" y2="34.547" transform="translate(9.173 12.497)" fill="none" stroke="#fae3c1" stroke-miterlimit="10" stroke-width="1"/>
        <line id="Línea_14" data-name="Línea 14" x2="1.157" y2="18.851" transform="translate(27.09 28.595)" fill="none" stroke="#fae3c1" stroke-miterlimit="10" stroke-width="1"/>
        <line id="Línea_15" data-name="Línea 15" x2="11.887" y2="0.125" transform="translate(19.072 21.391)" fill="none" stroke="#fae3c1" stroke-miterlimit="10" stroke-width="1"/>
        <line id="Línea_16" data-name="Línea 16" x1="5.749" y2="18.526" transform="translate(8.457 16.943)" fill="none" stroke="#fae3c1" stroke-miterlimit="10" stroke-width="1"/>
        <path id="Trazado_101" data-name="Trazado 101" d="M426.342,346.03l6.2,11.573-7.568-10.38Z" transform="translate(-424.97 -343.945)" fill="none" stroke="#fae3c1" stroke-miterlimit="10" stroke-width="1" opacity="0.28" style="mix-blend-mode: multiply;isolation: isolate"/>
        <path id="Trazado_102" data-name="Trazado 102" d="M432.537,357.6s-6.006,18.413,9.554,28.671C442.091,386.275,420.166,375.5,432.537,357.6Z" transform="translate(-424.97 -343.945)" fill="#863933" opacity="0.28" style="mix-blend-mode: multiply;isolation: isolate"/>
      </g>
    </g>
    <g id="Grupo_41" data-name="Grupo 41" transform="translate(34.459 710.083)">
      <g id="Grupo_40" data-name="Grupo 40">
        <path id="Trazado_103" data-name="Trazado 103" d="M71.847,576.923l10.938.144-.842-4.993L71.3,575.348s-10-13.19-24.735-.007S34.681,599.5,34.681,599.5,67.243,597.146,71.847,576.923Z" transform="translate(-34.459 -569.171)" fill="none" stroke="#fae3c1" stroke-miterlimit="10" stroke-width="0.841"/>
        <line id="Línea_17" data-name="Línea 17" x1="37.166" y2="22.575" transform="translate(0.221 7.752)" fill="none" stroke="#fae3c1" stroke-miterlimit="10" stroke-width="0.841"/>
        <line id="Línea_18" data-name="Línea 18" x1="15.464" y1="3.648" transform="translate(4.605 14.623)" fill="none" stroke="#fae3c1" stroke-miterlimit="10" stroke-width="0.841"/>
        <line id="Línea_19" data-name="Línea 19" x1="2.989" y2="9.544" transform="translate(24.83 13.564)" fill="none" stroke="#fae3c1" stroke-miterlimit="10" stroke-width="0.841"/>
        <line id="Línea_20" data-name="Línea 20" x1="13.524" y1="9.132" transform="translate(19.059 1.594)" fill="none" stroke="#fae3c1" stroke-miterlimit="10" stroke-width="0.841"/>
        <path id="Trazado_104" data-name="Trazado 104" d="M82.128,573.17,71.3,575.348l10.2-3.573Z" transform="translate(-34.459 -569.171)" fill="none" stroke="#fae3c1" stroke-miterlimit="10" stroke-width="0.841" opacity="0.28" style="mix-blend-mode: multiply;isolation: isolate"/>
        <path id="Trazado_105" data-name="Trazado 105" d="M71.3,575.348s-13.371-9.311-25.413.729C45.888,576.077,59.9,561.036,71.3,575.348Z" transform="translate(-34.459 -569.171)" fill="#863933" opacity="0.28" style="mix-blend-mode: multiply;isolation: isolate"/>
      </g>
    </g>
    <g id="Grupo_43" data-name="Grupo 43" transform="translate(1719.641 1010.713)">
      <g id="Grupo_42" data-name="Grupo 42">
        <path id="Trazado_106" data-name="Trazado 106" d="M1725.845,808.219l-3.591-12.5-5.394,2.672,7.379,10.987s-11.576,15.91,8.484,28.152,31.572,5.233,31.572,5.233S1750.44,806.515,1725.845,808.219Z" transform="translate(-1716.672 -795.722)" fill="none" stroke="#fae3c1" stroke-miterlimit="10" stroke-width="1"/>
        <line id="Línea_21" data-name="Línea 21" x2="38.45" y2="34.547" transform="translate(9.173 12.497)" fill="none" stroke="#fae3c1" stroke-miterlimit="10" stroke-width="1"/>
        <line id="Línea_22" data-name="Línea 22" x2="1.157" y2="18.851" transform="translate(27.09 28.595)" fill="none" stroke="#fae3c1" stroke-miterlimit="10" stroke-width="1"/>
        <line id="Línea_23" data-name="Línea 23" x2="11.887" y2="0.125" transform="translate(19.072 21.391)" fill="none" stroke="#fae3c1" stroke-miterlimit="10" stroke-width="1"/>
        <line id="Línea_24" data-name="Línea 24" x1="5.749" y2="18.526" transform="translate(8.457 16.943)" fill="none" stroke="#fae3c1" stroke-miterlimit="10" stroke-width="1"/>
        <path id="Trazado_107" data-name="Trazado 107" d="M1718.044,797.807l6.2,11.573L1716.672,799Z" transform="translate(-1716.672 -795.722)" fill="none" stroke="#fae3c1" stroke-miterlimit="10" stroke-width="1" opacity="0.28" style="mix-blend-mode: multiply;isolation: isolate"/>
        <path id="Trazado_108" data-name="Trazado 108" d="M1724.239,809.381s-6.005,18.413,9.554,28.671C1733.793,838.052,1711.869,827.275,1724.239,809.381Z" transform="translate(-1716.672 -795.722)" fill="#863933" opacity="0.28" style="mix-blend-mode: multiply;isolation: isolate"/>
      </g>
    </g>
    <g id="Grupo_44" data-name="Grupo 44" transform="translate(1171.61 452.362) rotate(87)">
      <g id="Grupo_38-2" data-name="Grupo 38" transform="translate(0 0)">
        <path id="Trazado_100-2" data-name="Trazado 100" d="M8.985,12.5,5.394,0,0,2.672,7.379,13.659S-4.2,29.569,15.863,41.811s31.572,5.233,31.572,5.233S33.58,10.793,8.985,12.5Z" transform="translate(0.188 0)" fill="none" stroke="#fae3c1" stroke-miterlimit="10" stroke-width="1"/>
        <line id="Línea_13-2" data-name="Línea 13" x2="38.45" y2="34.547" transform="translate(9.173 12.497)" fill="none" stroke="#fae3c1" stroke-miterlimit="10" stroke-width="1"/>
        <line id="Línea_14-2" data-name="Línea 14" x2="1.157" y2="18.851" transform="translate(27.09 28.595)" fill="none" stroke="#fae3c1" stroke-miterlimit="10" stroke-width="1"/>
        <line id="Línea_15-2" data-name="Línea 15" x2="11.887" y2="0.125" transform="translate(19.072 21.391)" fill="none" stroke="#fae3c1" stroke-miterlimit="10" stroke-width="1"/>
        <line id="Línea_16-2" data-name="Línea 16" x1="5.749" y2="18.526" transform="translate(8.457 16.943)" fill="none" stroke="#fae3c1" stroke-miterlimit="10" stroke-width="1"/>
        <path id="Trazado_101-2" data-name="Trazado 101" d="M1.372,0l6.2,11.573L0,1.193Z" transform="translate(0 2.085)" fill="none" stroke="#fae3c1" stroke-miterlimit="10" stroke-width="1" opacity="0.28" style="mix-blend-mode: multiply;isolation: isolate"/>
        <path id="Trazado_102-2" data-name="Trazado 102" d="M3.784,0s-6.006,18.413,9.554,28.671C13.338,28.671-8.587,17.894,3.784,0Z" transform="translate(3.783 13.659)" fill="#863933" opacity="0.28" style="mix-blend-mode: multiply;isolation: isolate"/>
      </g>
    </g>
    <g id="Grupo_45" data-name="Grupo 45" transform="matrix(-0.951, 0.309, -0.309, -0.951, 1144.796, 980.865)">
      <g id="Grupo_34-2" data-name="Grupo 34" transform="translate(0 0)">
        <path id="Trazado_94-2" data-name="Trazado 94" d="M29.447,5.32l9.016-.631L37.428.635,28.89,4.06S19.75-6.114,8.522,5.75.391,26.456.391,26.456,27.042,22.288,29.447,5.32Z" transform="translate(0 0.289)" fill="none" stroke="#fae3c1" stroke-miterlimit="10" stroke-width="0.695"/>
        <line id="Línea_5-2" data-name="Línea 5" x1="29.056" y2="21.135" transform="translate(0.391 5.609)" fill="none" stroke="#fae3c1" stroke-miterlimit="10" stroke-width="0.695"/>
        <line id="Línea_6-2" data-name="Línea 6" x1="12.983" y1="1.944" transform="translate(2.925 13.513)" fill="none" stroke="#fae3c1" stroke-miterlimit="10" stroke-width="0.695"/>
        <line id="Línea_7-2" data-name="Línea 7" x1="1.807" y2="8.063" transform="translate(20.16 11.05)" fill="none" stroke="#fae3c1" stroke-miterlimit="10" stroke-width="0.695"/>
        <line id="Línea_8-2" data-name="Línea 8" x1="11.762" y1="6.592" transform="translate(13.934 1.794)" fill="none" stroke="#fae3c1" stroke-miterlimit="10" stroke-width="0.695"/>
        <path id="Trazado_95-2" data-name="Trazado 95" d="M8.765,1.106,0,3.641,8.153,0Z" transform="translate(28.89 0.708)" fill="none" stroke="#fae3c1" stroke-miterlimit="10" stroke-width="0.695" opacity="0.28" style="mix-blend-mode: multiply;isolation: isolate"/>
        <path id="Trazado_96-2" data-name="Trazado 96" d="M20.876,4.349S9.228-2.4,0,6.691C0,6.691,10.5-6.653,20.876,4.349Z" transform="translate(8.014 0)" fill="#863933" opacity="0.28" style="mix-blend-mode: multiply;isolation: isolate"/>
      </g>
    </g>
  </g>
</svg>
