<svg xmlns="http://www.w3.org/2000/svg" width="1956.332" height="1110.308" viewBox="0 0 1956.332 1110.308">
  <g id="Grupo_31" data-name="Grupo 31" transform="translate(0.822 1.062)">
    <g id="Grupo_26" data-name="Grupo 26" transform="translate(0 2.761)">
      <path id="Trazado_71" data-name="Trazado 71" d="M156.248,149.486s31.039,63.751-39.039,114.356S47.9,312.865,22.215,382.446s-42.983,74.326-42.983,74.326V149.486Z" transform="translate(20.768 -149.486)" fill="none" stroke="#fde5c9" stroke-miterlimit="10" stroke-width="1.643"/>
      <path id="Trazado_72" data-name="Trazado 72" d="M-20.768,149.486H215.963s41.511,85.257-52.207,152.934S71.068,367.98,36.715,461.035s-57.483,99.4-57.483,99.4" transform="translate(20.768 -149.486)" fill="none" stroke="#fde5c9" stroke-miterlimit="10" stroke-width="2.198"/>
    </g>
    <path id="Trazado_73" data-name="Trazado 73" d="M-11.8,756.772s85.34-14.354,130.554,48.085S166.838,907.366,249.371,909.22s140.667,34.418,157.891,83.8H-11.8Z" transform="translate(20.768 114.678)" fill="none" stroke="#61e14e" stroke-miterlimit="10" stroke-width="3.087"/>
    <path id="Trazado_74" data-name="Trazado 74" d="M-11.8,701.426s105.332-17.716,161.138,59.35S208.686,887.3,310.555,889.588s173.619,42.481,194.878,103.436H-11.8Z" transform="translate(20.768 114.678)" fill="none" stroke="#f7dd64" stroke-miterlimit="10" stroke-width="3.087"/>
    <path id="Trazado_75" data-name="Trazado 75" d="M1701.715,146.725s-40.131,82.425,50.474,147.854,89.61,63.383,122.822,153.347,55.574,96.1,55.574,96.1v-397.3Z" transform="translate(23.738 -146.725)" fill="none" stroke="#f4e1c0" stroke-miterlimit="10" stroke-width="2.125"/>
    <path id="Trazado_76" data-name="Trazado 76" d="M1338.25,992.071s-9.354-164.691,175.693-171.361,182.92,60.029,302.03,75.591,114.856,95.77,114.856,95.77Z" transform="translate(23.738 114.678)" fill="none" stroke="#ffdd5b" stroke-miterlimit="10" stroke-width="1.805"/>
    <path id="Trazado_77" data-name="Trazado 77" d="M1403.31,984.628s-5.681-95.685,106.7-99.56,111.087,34.876,183.423,43.918,69.752,55.642,69.752,55.642Z" transform="translate(23.738 122.121)" fill="none" stroke="#ffdd5b" stroke-miterlimit="10" stroke-width="1.059"/>
  </g>
</svg>
